<mxfile host="app.diagrams.net" modified="2024-07-20T06:42:40.251Z" agent="Mozilla/5.0 (Macintosh; Intel Mac OS X 10_15_7) AppleWebKit/605.1.15 (KHTML, like Gecko) Version/17.6 Safari/605.1.15" version="24.7.2" etag="xOEVuz5GfTVpOwsRckMh" type="github">
  <diagram name="Page-1" id="oJKH56T1-qhxJIqJL_KQ">
    <mxGraphModel>
      <root>
        <mxCell id="0" />
        <mxCell id="1" parent="0" />
      </root>
    </mxGraphModel>
  </diagram>
</mxfile>
